# xmcd
#
# Track frame offsets:
#	150
#	17785
#	39255
#	52997
#	69887
#	79735
#	90850
#	107280
#	121807
#	137855
#	152690
#	165437
#
# Disc length: 2400 seconds
#
# Revision: 0
# Processed by: cddbd v1.5.2PL0 Copyright (c) Steve Scherf et al.
# Submitted via: EasyCDDAExtractor 15.3.0.1
#
DISCID=7d095e0c
DTITLE=Cissy Houston - Mama's cookin'
DYEAR=1997
DGENRE=Soul
TTITLE0=Midnight train to Georgia
TTITLE1=Nothing can stop me
TTITLE2=Making love
TTITLE3=The long and winding road
TTITLE4=I just don't know what to do with myself
TTITLE5=This empty place
TTITLE6=The only time you say you love me
TTITLE7=I will love you
TTITLE8=Will you love me tomorrow
TTITLE9=Be my baby
TTITLE10=I'll be there
TTITLE11=I believe
EXTD=
EXTT0=
EXTT1=
EXTT2=
EXTT3=
EXTT4=
EXTT5=
EXTT6=
EXTT7=
EXTT8=
EXTT9=
EXTT10=
EXTT11=
PLAYORDER=
